<svg version="1.1" id="Layer_1" xmlns="http://www.w3.org/2000/svg"
	xmlns:xlink="http://www.w3.org/1999/xlink" x="0px" y="0px"
	width="100%" viewBox="0 0 2000 2250" enable-background="new 0 0 2000 2250" xml:space="preserve">
<path fill="transparent" opacity="1.000000" stroke="none" 
	d="
M2002.000000,938.000000 
	C2002.000000,1375.919312 2002.000000,1813.838745 2002.000000,2251.878906 
	C1335.536865,2251.878906 669.073608,2251.878906 2.000000,2251.878906 
	C2.000000,1851.277466 2.000000,1450.554688 2.687018,1049.007812 
	C5.311553,1050.815552 7.699455,1053.226074 9.116418,1056.113037 
	C22.172554,1082.713989 35.743160,1109.092041 47.839260,1136.127686 
	C66.412834,1177.641113 79.144188,1221.093018 87.421463,1265.808228 
	C88.869453,1273.630615 89.862892,1281.632568 90.016541,1289.571899 
	C90.169289,1297.465088 85.415092,1301.806396 77.516602,1302.078491 
	C73.595207,1302.213623 69.646973,1301.569336 65.209572,1301.240479 
	C64.858223,1303.691772 64.277618,1305.918335 64.262474,1308.148804 
	C64.174309,1321.138306 64.027748,1334.131958 64.267136,1347.117554 
	C64.564522,1363.249512 67.599297,1378.955444 74.032600,1393.751465 
	C93.686760,1438.953979 113.717957,1483.992554 133.433044,1529.168823 
	C147.152191,1560.605835 161.327133,1591.873413 173.958054,1623.747803 
	C187.570557,1658.098999 199.691879,1693.043579 212.278946,1727.796143 
	C214.295685,1733.364380 216.049911,1737.504028 223.301468,1738.503784 
	C228.439072,1739.212036 233.600906,1743.090942 237.787430,1746.679810 
	C247.583878,1755.077637 251.462128,1766.659668 254.234756,1778.986694 
	C258.318695,1797.143799 262.078735,1815.526489 268.188995,1833.041382 
	C279.316132,1864.937256 296.146820,1893.578003 323.641205,1914.463013 
	C345.094177,1930.758911 368.797302,1941.211182 396.534210,1940.285767 
	C408.519714,1939.885986 420.540314,1939.900757 432.526093,1940.297241 
	C449.646484,1940.863525 466.472809,1943.409424 481.338257,1952.658569 
	C488.361359,1957.028198 494.668976,1962.546753 501.307281,1967.536133 
	C530.276062,1989.309204 563.167847,1999.781860 599.121521,1999.954956 
	C610.151917,2000.008179 619.654541,2002.086792 629.362610,2007.344360 
	C680.010864,2034.774414 732.845947,2058.230225 780.574219,2090.947021 
	C786.920593,2095.297363 793.193481,2094.164795 799.368713,2090.691650 
	C801.275330,2089.619385 802.921814,2088.084717 804.662720,2086.779785 
	C812.093018,2095.791992 802.558777,2106.204102 808.008667,2115.097900 
	C809.481995,2115.273193 810.814880,2115.686768 812.086060,2115.545654 
	C835.880981,2112.903564 859.632385,2109.802979 883.467712,2107.610352 
	C907.951965,2105.358154 932.492920,2103.309570 957.053955,2102.441895 
	C974.969666,2101.809570 992.957764,2103.247070 1010.914062,2103.745117 
	C1045.716553,2104.709961 1079.728882,2110.524658 1113.181763,2120.042480 
	C1116.470215,2120.978027 1120.524658,2121.109619 1123.744751,2120.094727 
	C1147.008789,2112.762695 1170.024902,2114.052979 1192.194458,2123.251465 
	C1207.828735,2129.738281 1222.825806,2137.890625 1237.685059,2146.066406 
	C1246.312256,2150.813232 1255.449097,2151.381836 1264.620972,2151.428711 
	C1271.985229,2151.466553 1274.936890,2146.723145 1273.759888,2139.152100 
	C1273.309448,2136.255127 1272.556030,2133.405029 1271.880005,2130.250244 
	C1274.066284,2128.774414 1275.803223,2127.144531 1277.861938,2126.295410 
	C1284.629395,2123.504639 1291.334961,2120.278076 1298.388672,2118.524414 
	C1315.179443,2114.350098 1332.200928,2111.112549 1349.037109,2107.109131 
	C1356.667847,2105.294678 1362.925415,2106.833740 1367.978760,2112.687256 
	C1373.415039,2118.983887 1378.603149,2125.493896 1383.944580,2131.873291 
	C1389.871460,2138.952148 1396.799683,2144.198730 1407.153564,2144.394043 
	C1407.296631,2142.049316 1407.491577,2140.127441 1407.517944,2138.203369 
	C1407.635376,2129.627930 1407.015625,2120.976562 1407.945312,2112.492920 
	C1409.522949,2098.095459 1416.601440,2092.135498 1431.250244,2091.837158 
	C1438.906006,2091.681396 1446.572144,2092.113281 1454.233521,2092.110107 
	C1458.453003,2092.108398 1462.672241,2091.756104 1467.785034,2091.520508 
	C1467.785034,2081.719971 1467.947998,2072.819336 1467.737183,2063.927979 
	C1467.541260,2055.666016 1470.791138,2049.188232 1476.678955,2043.603760 
	C1483.446289,2037.185059 1490.121826,2030.650024 1496.524658,2023.870483 
	C1510.462646,2009.112671 1523.793091,1993.755371 1538.191162,1979.468628 
	C1545.681152,1972.036377 1554.889893,1966.328857 1563.367065,1959.901489 
	C1567.595947,1956.695190 1571.200684,1957.423584 1574.598511,1961.525391 
	C1578.628052,1966.390015 1582.941895,1971.025269 1587.246826,1975.653931 
	C1591.430908,1980.152710 1595.759399,1984.517334 1599.909790,1988.822144 
	C1601.130859,1987.826294 1601.514038,1987.672485 1601.581665,1987.430542 
	C1601.847290,1986.479370 1602.141357,1985.507935 1602.197632,1984.530884 
	C1603.162964,1967.784912 1596.001465,1954.232178 1585.378174,1942.084839 
	C1581.441650,1937.583740 1576.864258,1933.555664 1573.471680,1928.689575 
	C1569.856567,1923.504028 1571.136841,1919.943726 1577.106689,1917.917358 
	C1588.764160,1913.960327 1600.517578,1910.230591 1612.385010,1906.965088 
	C1621.507812,1904.454712 1630.205933,1906.344971 1638.155640,1911.563110 
	C1640.656250,1913.204590 1643.280884,1914.657227 1646.074951,1916.499023 
	C1646.795288,1916.883911 1647.289551,1916.966187 1647.783691,1917.048584 
	C1647.359131,1916.498047 1646.934570,1915.947632 1646.456543,1914.644043 
	C1645.488525,1911.751953 1644.542969,1909.625244 1643.664429,1907.471313 
	C1640.086914,1898.699829 1640.973511,1894.189453 1649.169922,1890.054199 
	C1655.241699,1886.991211 1662.145142,1885.017578 1668.894531,1884.012085 
	C1675.741699,1882.992310 1682.864502,1883.985229 1689.849487,1883.691650 
	C1704.263916,1883.085938 1714.683838,1876.304443 1719.385986,1862.460815 
	C1721.717163,1855.597900 1723.381714,1848.305054 1723.917969,1841.100342 
	C1724.343994,1835.375854 1726.275879,1831.151245 1729.828369,1826.888916 
	C1746.876831,1806.434082 1764.213745,1786.187500 1780.478149,1765.118042 
	C1817.225464,1717.513672 1847.844604,1666.119995 1874.252319,1612.086182 
	C1891.676147,1576.434814 1907.139038,1539.996948 1921.486816,1503.046997 
	C1922.451050,1500.563965 1922.929077,1497.892090 1923.922974,1494.244995 
	C1921.281616,1495.086914 1920.224976,1495.182251 1919.466553,1495.707886 
	C1916.458496,1497.792847 1913.442627,1499.888428 1910.610718,1502.201660 
	C1886.710327,1521.724487 1865.844849,1543.945923 1849.642578,1570.386597 
	C1846.709106,1575.173584 1843.266235,1579.810425 1839.313110,1583.772827 
	C1833.241821,1589.858154 1827.963623,1590.312744 1820.275513,1586.702637 
	C1818.295166,1585.772827 1816.270142,1584.938232 1813.616089,1583.775269 
	C1810.188477,1594.157959 1807.008911,1603.788696 1803.829468,1613.419434 
	C1803.309692,1613.332031 1802.789795,1613.244629 1802.270020,1613.157227 
	C1802.270020,1606.483887 1802.270020,1599.810547 1802.270020,1591.753540 
	C1798.550293,1594.371826 1795.850830,1596.123657 1793.311157,1598.082397 
	C1764.048584,1620.651001 1734.935425,1643.415405 1705.541504,1665.811401 
	C1623.140625,1728.594604 1539.332764,1789.420044 1452.562988,1846.067871 
	C1439.778931,1854.413940 1426.771362,1862.654907 1413.064819,1869.285889 
	C1398.384521,1876.388184 1388.166748,1872.259155 1379.179810,1858.248413 
	C1377.787964,1856.078491 1376.183105,1854.045410 1374.017944,1851.032104 
	C1370.991943,1853.411499 1368.442871,1855.331299 1365.986816,1857.363647 
	C1360.348755,1862.029541 1354.943604,1867.003540 1349.073730,1871.352783 
	C1345.599365,1873.927368 1341.344116,1875.742554 1336.911011,1873.360840 
	C1332.489502,1870.985229 1331.866333,1866.622437 1331.886597,1862.151367 
	C1331.901733,1858.828369 1332.096191,1855.506226 1332.418945,1852.083862 
	C1332.626953,1851.984009 1332.532227,1851.274292 1332.532227,1851.274292 
	C1332.532227,1851.274292 1331.911133,1851.891968 1331.000000,1851.863281 
	C1324.106934,1851.707031 1318.064453,1852.073364 1312.155518,1851.349365 
	C1299.714355,1849.825317 1295.497803,1851.943970 1290.289185,1863.352051 
	C1288.737549,1866.750610 1286.913696,1870.024780 1285.177368,1873.428955 
	C1278.054688,1869.772827 1279.296143,1859.954590 1269.865112,1858.831787 
	C1268.264404,1867.759155 1266.714111,1876.405640 1265.144165,1885.161743 
	C1257.256958,1876.722046 1254.174316,1876.909058 1246.757690,1886.311157 
	C1244.366211,1889.342773 1242.216187,1892.564819 1239.596436,1896.198242 
	C1229.335327,1883.969238 1223.260986,1869.209351 1208.532593,1859.818848 
	C1210.670654,1870.941650 1217.675781,1879.709839 1211.942261,1890.366455 
	C1208.694214,1888.407959 1206.047607,1886.812134 1202.570068,1884.715454 
	C1201.687134,1891.869995 1200.739380,1898.070068 1200.215210,1904.305664 
	C1199.853760,1908.605957 1198.418335,1911.592529 1194.426514,1913.938843 
	C1189.884766,1916.608643 1184.867310,1919.613281 1182.017334,1923.805420 
	C1172.985352,1937.091187 1160.035645,1940.961914 1145.110596,1941.771973 
	C1110.096191,1943.672852 1075.753418,1949.802979 1041.784668,1958.381714 
	C1037.160889,1959.549438 1031.857178,1959.632935 1027.172363,1958.696655 
	C989.321899,1951.131348 951.641602,1942.685669 913.716492,1935.531006 
	C876.768494,1928.560669 839.415894,1924.305542 801.882385,1921.682129 
	C787.295776,1920.662720 772.644775,1919.621704 758.225647,1917.321045 
	C709.177979,1909.495239 664.145691,1890.951538 622.141724,1864.751587 
	C620.071960,1863.460571 618.381104,1861.562134 616.350464,1859.805176 
	C636.750183,1845.364258 642.264648,1834.133789 634.260620,1823.010254 
	C628.747375,1833.870117 618.568787,1836.872314 607.963745,1839.081177 
	C601.772217,1840.370728 595.443237,1841.130859 589.373413,1842.832886 
	C584.453186,1844.212646 581.264771,1842.596558 577.850525,1839.304810 
	C552.204773,1814.578735 526.516907,1789.894775 500.661835,1765.388062 
	C479.641571,1745.463867 458.302856,1725.876221 437.228455,1706.008667 
	C408.402191,1678.833252 379.144714,1652.083984 351.088440,1624.131836 
	C323.501648,1596.647339 297.370697,1567.708008 270.250000,1539.747437 
	C249.346832,1518.197021 232.837738,1493.852173 221.242310,1466.202637 
	C207.333923,1433.037842 193.642639,1399.782227 179.740692,1366.614868 
	C177.895737,1362.213257 175.364456,1358.099365 172.760162,1353.102173 
	C169.643524,1355.915161 167.825134,1357.806030 165.760361,1359.371826 
	C160.280945,1363.526978 153.526978,1363.562988 149.921890,1357.819580 
	C145.596375,1350.928589 142.483963,1343.069946 140.131241,1335.244019 
	C139.131897,1331.919922 140.673508,1327.265259 142.329712,1323.826660 
	C145.822281,1316.575439 151.867706,1314.989258 158.919464,1318.693726 
	C160.907349,1319.738037 162.785233,1320.991821 166.431076,1323.180664 
	C165.559448,1315.852417 164.989685,1310.087036 164.173172,1304.356812 
	C159.058701,1268.463257 154.566666,1232.462402 148.487244,1196.731934 
	C144.760635,1174.829590 145.582916,1154.166992 157.480362,1135.083984 
	C170.050522,1114.921753 174.253677,1092.738892 176.012543,1069.542969 
	C177.621140,1048.328979 180.274094,1027.191528 182.610138,1006.036255 
	C185.602264,978.939453 188.667633,951.850281 191.831177,924.773010 
	C195.071991,897.034546 197.435120,869.142822 201.999146,841.619385 
	C213.994690,769.280273 241.185410,702.752563 281.724121,641.722473 
	C319.387543,585.020996 366.350983,536.440186 415.590454,489.936340 
	C436.637756,470.058350 458.485016,451.024078 479.425995,431.037750 
	C498.546967,412.788422 518.670532,396.069794 541.917053,383.266907 
	C554.457703,376.360199 566.731262,368.969055 579.132751,361.809387 
	C624.123596,335.835144 668.647522,309.004791 714.241211,284.135742 
	C760.620056,258.838531 809.800171,240.243881 861.616821,228.958908 
	C902.123230,220.137192 943.139465,216.614441 984.475342,216.317856 
	C998.092346,216.220154 1011.718872,217.651184 1025.338257,217.602798 
	C1032.236572,217.578323 1039.252808,216.337021 1045.997437,214.729736 
	C1059.577515,211.493484 1067.934692,202.527802 1071.093140,189.048950 
	C1074.927856,172.683640 1072.868042,156.269867 1071.373657,138.584702 
	C1060.132324,143.717697 1050.355347,141.392517 1041.300537,135.493256 
	C1036.576172,132.415268 1032.133179,128.844437 1027.851562,125.160797 
	C1018.706909,117.293182 1009.141907,110.315414 997.603638,106.127327 
	C992.209961,104.169540 987.508240,104.149117 982.223877,106.145714 
	C957.299561,115.562958 932.165527,124.434097 907.333435,134.084518 
	C868.459045,149.192078 830.400635,165.995316 796.527588,190.919617 
	C795.094482,191.974136 793.166138,192.355621 790.210510,193.565659 
	C790.606018,189.431473 790.987549,186.545319 791.138916,183.647141 
	C791.537842,176.006714 792.199341,168.355011 792.071350,160.719269 
	C791.949036,153.420746 787.781006,149.974548 780.958008,152.375732 
	C775.503662,154.295227 770.301270,157.826706 765.914612,161.694733 
	C757.180054,169.396606 749.411377,178.198242 740.634705,185.846771 
	C731.128174,194.131393 721.130676,201.896652 710.956055,209.354721 
	C704.513794,214.076950 697.188721,214.512970 689.060730,213.077789 
	C671.048218,209.897278 653.191895,211.256546 636.205017,218.799896 
	C603.567871,233.293091 580.436401,257.058380 567.729797,290.460785 
	C565.168274,297.194366 561.487366,300.289703 554.610840,299.910126 
	C537.029053,298.939636 519.408630,298.371643 501.882416,296.777557 
	C484.599976,295.205658 468.555115,297.224487 455.137390,309.206268 
	C425.847473,335.361603 396.099915,361.043274 367.631805,388.069214 
	C338.153961,416.053741 309.959320,445.390350 281.221985,474.154114 
	C274.068237,481.314423 268.437622,489.467041 265.141113,499.136108 
	C261.916962,508.592987 258.622345,518.026123 255.315628,527.454529 
	C250.978775,539.820190 244.803436,551.058838 236.375854,561.241211 
	C220.194901,580.791504 201.973129,598.280090 183.503296,615.581665 
	C160.682251,636.959229 136.725494,657.108582 115.844818,680.576904 
	C97.788574,700.870789 82.047440,722.608093 69.784737,746.812256 
	C56.316059,773.396912 47.130589,801.576050 40.021908,830.410828 
	C28.934210,875.385437 22.703875,921.241211 15.904323,966.990417 
	C12.921441,987.060120 9.512411,1007.067261 6.191120,1027.085205 
	C5.736194,1029.827148 6.295393,1033.466064 2.000000,1034.000000 
	C2.000000,690.072388 2.000000,346.144806 2.000000,2.108599 
	C668.453918,2.108599 1334.907837,2.108599 2002.000000,2.108599 
	C2002.000000,308.722443 2002.000000,615.445312 2001.390747,923.380737 
	C1993.434448,928.300476 1987.869019,933.903198 1983.543335,940.818054 
	C1981.423584,944.206726 1979.602905,947.826416 1977.149658,950.951233 
	C1974.118652,954.811829 1970.805176,958.771729 1964.581177,956.969482 
	C1964.306641,955.167542 1963.891357,953.550720 1963.837769,951.921936 
	C1963.268677,934.632568 1963.221313,917.311768 1962.125854,900.057068 
	C1960.272217,870.855408 1958.447998,841.622742 1955.362549,812.535645 
	C1951.468994,775.832581 1946.391724,739.253479 1941.658325,702.642517 
	C1940.728027,695.447021 1939.952271,688.247070 1935.827148,681.716248 
	C1911.811646,643.695312 1888.005005,605.542175 1864.173706,567.405090 
	C1828.161133,509.775085 1792.225952,452.096832 1756.171265,394.493195 
	C1745.225220,377.004974 1734.642456,359.303619 1720.617798,343.896667 
	C1675.648926,294.495728 1622.666748,255.819122 1563.217041,225.832397 
	C1532.230835,210.202789 1499.833008,198.013336 1466.880371,187.105148 
	C1431.157227,175.279800 1394.519409,169.545395 1357.079712,168.362701 
	C1349.147339,168.112106 1341.176147,169.554825 1333.212646,169.716599 
	C1316.221802,170.061737 1299.216919,170.453156 1282.232178,170.107803 
	C1269.431396,169.847519 1260.764526,175.914368 1254.070190,185.918137 
	C1252.250000,188.638000 1250.766357,191.583069 1249.063721,194.536972 
	C1226.552368,187.027206 1203.890503,188.492157 1181.602295,192.106216 
	C1155.724854,196.302292 1141.586548,223.645111 1151.102173,248.001022 
	C1156.430176,261.638000 1166.705688,271.122772 1177.756226,279.748047 
	C1213.069458,307.311371 1254.437866,317.252716 1298.086426,319.538452 
	C1306.715820,319.990387 1314.276489,321.728943 1321.705933,325.964996 
	C1389.800049,364.790985 1454.985229,408.102295 1518.801025,453.526764 
	C1569.007690,489.264160 1619.277954,524.915649 1669.188599,561.062988 
	C1681.528442,570.000000 1693.896362,572.065308 1707.601196,566.218201 
	C1716.779541,562.302246 1725.671387,557.718689 1734.739136,553.536987 
	C1737.232788,552.386963 1739.897339,551.607422 1743.676147,550.219971 
	C1743.676147,555.140991 1744.083862,558.486755 1743.603516,561.699768 
	C1741.805664,573.722473 1743.462646,585.560669 1745.511719,597.303162 
	C1750.538696,626.109558 1762.276367,652.707275 1773.706177,679.311646 
	C1781.196533,696.746704 1795.080444,708.620117 1810.908081,718.595886 
	C1840.125854,737.011353 1850.963379,764.919983 1849.355957,798.035950 
	C1848.782837,809.843079 1845.124390,821.556335 1842.293823,833.170898 
	C1841.137817,837.914185 1840.542969,842.023865 1842.959351,846.563110 
	C1849.057861,858.018799 1854.362549,869.915894 1860.809937,881.163452 
	C1877.972656,911.103943 1897.740234,938.906982 1926.499146,959.221313 
	C1929.691406,961.476318 1931.942017,965.919006 1933.200439,969.809326 
	C1934.381226,973.459656 1933.384277,977.757263 1933.864380,981.706970 
	C1934.378662,985.937744 1934.731445,990.457947 1936.507568,994.211792 
	C1940.781372,1003.244202 1948.271851,1004.608398 1956.079224,998.363159 
	C1958.477173,996.444824 1960.695923,994.302307 1964.222168,991.175903 
	C1963.910034,996.708008 1963.829346,1000.339478 1963.481812,1003.945251 
	C1960.995361,1029.750610 1957.994019,1055.516724 1956.095093,1081.364380 
	C1954.849609,1098.315552 1956.132202,1115.311401 1960.017944,1131.972900 
	C1960.447144,1133.813232 1961.593140,1135.486450 1963.312744,1139.186646 
	C1966.396729,1096.886597 1970.016235,1057.097046 1978.224487,1017.992432 
	C1983.413452,993.271362 1990.537964,968.951477 1997.072388,944.526123 
	C1997.725220,942.085999 2000.311279,940.163025 2002.000000,938.000000 
M1050.826782,1187.828247 
	C1034.610840,1201.265991 1020.748047,1216.961426 1007.251770,1233.030151 
	C989.451233,1254.223511 972.918396,1276.333008 958.589478,1300.030762 
	C955.638794,1304.910767 952.067383,1307.512451 946.138977,1308.524902 
	C938.337524,1309.857056 930.727966,1312.664062 923.256470,1315.432495 
	C919.466248,1316.836792 914.980591,1318.363647 914.318542,1325.053223 
	C923.255432,1325.508301 931.912476,1325.949097 941.681519,1326.446411 
	C940.242493,1329.593628 939.381470,1331.638428 938.390808,1333.618286 
	C927.222656,1355.938110 915.549133,1378.022827 905.056213,1400.655029 
	C899.774170,1412.047974 896.218018,1424.310303 892.664307,1436.409546 
	C890.511108,1443.740234 891.419861,1451.262329 898.124817,1456.373901 
	C905.878052,1462.284546 914.953003,1465.148682 924.883118,1467.551270 
	C925.801941,1462.581299 926.592041,1458.726318 927.210449,1454.844116 
	C927.838074,1450.904297 928.113037,1446.902466 928.856812,1442.987549 
	C936.197021,1404.351929 950.535095,1368.306519 969.178772,1333.827881 
	C971.485962,1329.561279 973.996460,1327.372925 979.216064,1327.621948 
	C1001.802246,1328.699341 1024.408203,1329.359253 1047.004150,1330.243164 
	C1048.923218,1330.318237 1050.821533,1330.924683 1052.946411,1331.325195 
	C1052.946411,1333.962402 1053.215698,1336.253052 1052.905884,1338.462646 
	C1048.096558,1372.768677 1046.086426,1407.239990 1046.082520,1441.874146 
	C1046.081665,1449.157104 1048.766235,1453.801025 1054.897339,1457.195923 
	C1065.567261,1463.104004 1077.150879,1465.934448 1089.063843,1467.592529 
	C1091.122192,1467.879028 1093.375244,1466.765503 1095.952148,1466.209473 
	C1093.695801,1366.253784 1105.994873,1269.290527 1145.527710,1175.765015 
	C1129.742065,1163.902466 1112.146606,1155.828613 1092.212891,1154.470581 
	C1088.743042,1158.614380 1085.311890,1161.988037 1081.509888,1164.872803 
	C1071.707886,1172.309692 1061.741821,1179.530273 1050.826782,1187.828247 
M534.379883,1213.464355 
	C536.385193,1209.254272 538.863892,1205.196777 540.281433,1200.797241 
	C542.250183,1194.687012 546.469727,1192.574219 552.285278,1192.287598 
	C558.270142,1191.992554 564.251404,1191.448120 570.237610,1191.395264 
	C584.158813,1191.272217 598.082214,1191.340698 612.004272,1191.411865 
	C617.809814,1191.441528 623.708313,1192.894531 629.307617,1190.629150 
	C628.873779,1180.362915 625.197693,1168.613647 620.501465,1161.946167 
	C616.389221,1156.107666 610.476074,1153.242920 603.653015,1152.406250 
	C599.717896,1151.923706 595.648071,1152.078491 591.678589,1152.414551 
	C569.492920,1154.293335 547.317505,1156.295166 525.142395,1158.296387 
	C513.895752,1159.311401 502.673981,1160.672119 491.410431,1161.412720 
	C476.153778,1162.415649 460.864838,1163.590820 445.595490,1163.516357 
	C434.359680,1163.461548 423.118164,1161.651123 411.910370,1160.353638 
	C407.944794,1159.894531 405.296387,1160.853271 404.451904,1164.896973 
	C399.929016,1186.553833 410.864716,1201.851074 430.616180,1203.798828 
	C440.127197,1204.736938 449.878998,1203.589966 459.496857,1202.988525 
	C469.314056,1202.374878 479.100677,1201.272583 490.528625,1200.236694 
	C488.934143,1206.882690 488.131134,1212.058716 486.451477,1216.932861 
	C475.713104,1248.093262 464.587036,1279.120728 453.962982,1310.319580 
	C440.334076,1350.342529 427.128052,1390.509521 413.545044,1430.548340 
	C411.754883,1435.825195 412.376831,1440.035645 415.507690,1444.546265 
	C422.936584,1455.248535 432.363190,1463.406128 444.522308,1468.114990 
	C447.700287,1469.345825 451.305237,1469.473999 455.252411,1470.208618 
	C456.300171,1465.915649 457.158661,1462.745972 457.842010,1459.538940 
	C461.031555,1444.570557 463.735138,1429.483887 467.406189,1414.635620 
	C484.297913,1346.313354 506.377563,1279.693359 534.379883,1213.464355 
M1522.513672,1337.807983 
	C1524.541260,1336.988037 1526.568726,1336.168091 1530.116577,1334.733521 
	C1528.829590,1338.582275 1528.068604,1340.967651 1527.236938,1343.328369 
	C1522.592773,1356.508911 1517.525879,1369.557983 1513.400879,1382.898682 
	C1509.917969,1394.162354 1510.135132,1405.848633 1512.427979,1417.403687 
	C1515.345215,1432.106323 1525.957031,1441.269043 1540.968994,1442.148682 
	C1544.290161,1442.343384 1547.668701,1442.492920 1550.958740,1442.118408 
	C1561.957275,1440.866333 1571.011353,1435.185181 1579.367920,1428.489502 
	C1580.765503,1427.369629 1580.962158,1423.625244 1580.389404,1421.440796 
	C1579.569702,1418.313721 1576.625732,1418.195312 1573.775757,1419.052246 
	C1570.591675,1420.009644 1567.442383,1421.259277 1564.182617,1421.751343 
	C1557.777222,1422.718262 1554.613159,1420.830688 1553.315552,1414.444458 
	C1552.409180,1409.983643 1552.357178,1405.170166 1552.889404,1400.627197 
	C1555.285156,1380.177612 1562.732910,1361.258545 1571.765137,1343.001831 
	C1579.423828,1327.521606 1586.600952,1311.579956 1600.047729,1299.855225 
	C1602.967041,1297.309814 1602.545654,1294.528442 1600.856567,1291.813354 
	C1593.515259,1280.013062 1582.767822,1272.273438 1566.215698,1277.202148 
	C1562.114502,1278.423340 1558.191406,1280.450317 1554.418701,1282.528687 
	C1540.591553,1290.146973 1528.830811,1300.471191 1517.425415,1311.237793 
	C1493.628418,1333.702026 1473.247559,1359.238403 1451.951172,1383.953003 
	C1450.590576,1385.531982 1448.926270,1386.849487 1446.120850,1389.500244 
	C1447.423340,1379.158447 1451.922363,1372.138550 1455.945190,1365.021851 
	C1468.236206,1343.278198 1480.282471,1321.373779 1493.352417,1300.102539 
	C1499.866821,1289.500732 1497.919922,1280.687988 1491.599976,1271.557617 
	C1489.326294,1268.272827 1487.071655,1264.922241 1484.389771,1261.983643 
	C1479.443604,1256.564087 1473.966675,1251.790771 1465.474121,1250.254639 
	C1461.945557,1255.045166 1457.824829,1259.489014 1455.023926,1264.649292 
	C1445.025757,1283.069092 1434.586670,1301.329590 1425.954834,1320.393066 
	C1411.226929,1352.919922 1398.949829,1386.391846 1395.395996,1422.327148 
	C1394.219360,1434.224976 1398.708008,1444.521973 1406.680542,1453.095459 
	C1411.169189,1457.922607 1414.871582,1457.552490 1419.557373,1452.938232 
	C1420.970337,1451.546875 1422.107056,1449.867310 1423.318848,1448.280518 
	C1444.124756,1421.035400 1463.200317,1392.359009 1487.931519,1368.333374 
	C1498.629639,1357.940430 1510.168457,1348.412964 1522.513672,1337.807983 
M587.195129,1286.197998 
	C584.598511,1289.229736 581.965576,1292.231201 579.411072,1295.297974 
	C558.157532,1320.813110 542.679199,1349.253174 536.995422,1382.254639 
	C534.438171,1397.103149 533.882568,1412.289185 540.569397,1426.414551 
	C549.007690,1444.239258 565.146851,1453.556396 584.446045,1440.178955 
	C588.806519,1437.156494 593.009766,1433.843018 596.952759,1430.294067 
	C609.918396,1418.624390 620.507935,1404.970459 629.849487,1390.290527 
	C631.070190,1388.372314 632.884949,1386.832153 634.424622,1385.116821 
	C634.999146,1391.601685 633.470947,1397.050171 633.048523,1402.583130 
	C632.417908,1410.841553 631.871033,1419.220703 632.595764,1427.433228 
	C633.216309,1434.465576 636.193298,1441.008911 643.315796,1444.410889 
	C652.118042,1448.615479 668.907104,1445.714111 675.995300,1439.304565 
	C673.797852,1433.066040 671.513489,1427.258789 669.706909,1421.306519 
	C666.272644,1409.991211 669.109558,1398.787354 671.271973,1387.758423 
	C675.901123,1364.147949 683.766663,1341.514404 693.323303,1319.460571 
	C695.970398,1313.351929 698.684875,1307.272461 701.325317,1301.161011 
	C704.553955,1293.688354 704.378906,1292.524902 697.206665,1288.422607 
	C693.213684,1286.138672 688.791443,1284.423340 684.366577,1283.114868 
	C675.761230,1280.569946 674.321777,1281.418945 670.228943,1289.289795 
	C662.702881,1303.763062 655.355896,1318.336304 647.501770,1332.630371 
	C634.989441,1355.401978 622.044067,1377.988892 605.564331,1398.160156 
	C599.127319,1406.039062 591.040833,1412.658325 583.188721,1419.234131 
	C581.129639,1420.958618 575.869385,1421.842407 574.331360,1420.510742 
	C572.005005,1418.496948 570.608765,1414.174072 570.695984,1410.882324 
	C570.843933,1405.300903 572.157654,1399.684570 573.506165,1394.212158 
	C579.778870,1368.757080 592.552856,1346.649658 609.755615,1327.200562 
	C623.294739,1311.893433 638.268677,1298.156860 658.770813,1292.413818 
	C659.900879,1292.097290 660.808472,1290.986328 661.791992,1290.265137 
	C661.214600,1282.929688 656.480469,1278.239990 652.193054,1273.931396 
	C636.856873,1258.518921 631.906372,1256.700684 612.916321,1266.759277 
	C603.942261,1271.512695 596.394165,1278.958130 587.195129,1286.197998 
M803.590576,1274.606812 
	C822.363464,1228.688965 847.154785,1186.341675 878.664978,1147.972534 
	C883.525940,1142.053589 883.772949,1139.947632 877.605652,1135.930054 
	C868.445740,1129.963013 858.830505,1124.599121 849.031860,1119.739380 
	C841.298096,1115.903564 839.225098,1116.872070 833.787964,1123.720459 
	C832.134338,1125.803345 830.597107,1127.987549 829.123535,1130.203247 
	C815.831055,1150.191406 804.266052,1171.095947 794.241211,1192.948120 
	C769.077698,1247.799683 747.434082,1303.940552 731.183167,1362.083130 
	C725.989746,1380.664307 721.194275,1399.445435 722.277466,1419.018066 
	C722.999146,1432.057983 724.189453,1445.030762 736.200867,1453.713623 
	C738.271667,1455.210571 739.551575,1457.801514 741.196716,1459.887207 
	C744.493164,1464.066528 748.560181,1466.339233 754.926331,1465.351685 
	C755.222107,1462.317505 755.784790,1459.452637 755.733765,1456.598999 
	C755.397766,1437.822754 758.561523,1419.472778 762.631470,1401.278442 
	C772.246338,1358.295898 786.351074,1316.735596 803.590576,1274.606812 
M1204.152832,1433.168823 
	C1239.413452,1403.156738 1269.402710,1368.528320 1294.154785,1329.440674 
	C1303.614868,1314.501831 1311.788086,1298.752075 1316.003052,1281.427002 
	C1320.701172,1262.115356 1320.865356,1258.400513 1297.500244,1253.222656 
	C1296.640991,1253.032227 1295.627563,1253.536865 1295.660767,1253.530396 
	C1287.279419,1274.183960 1279.674805,1294.399414 1270.911743,1314.099609 
	C1262.246338,1333.579956 1252.019897,1352.281250 1239.177368,1369.477173 
	C1226.319458,1386.693726 1214.025513,1404.347412 1197.084106,1418.218506 
	C1196.644287,1415.583618 1197.009521,1413.394775 1197.342773,1411.201050 
	C1199.489014,1397.076050 1202.406250,1383.013916 1203.574585,1368.808228 
	C1205.072632,1350.594116 1204.872437,1332.246704 1205.966919,1313.990479 
	C1206.621338,1303.072021 1208.369019,1292.219849 1209.589478,1281.333862 
	C1209.915405,1278.427124 1210.109497,1275.505615 1210.467651,1271.405151 
	C1204.939575,1270.163208 1199.906250,1268.392822 1194.764893,1267.985596 
	C1169.620483,1265.994751 1160.223389,1274.602783 1160.299683,1299.747559 
	C1160.337036,1312.036255 1161.586548,1324.319214 1161.693726,1336.609985 
	C1161.947266,1365.692749 1159.623413,1394.397949 1149.477173,1422.087524 
	C1144.601440,1435.393921 1149.354858,1446.305542 1161.504028,1453.564453 
	C1166.592529,1456.604980 1171.233398,1457.047241 1176.267212,1453.291626 
	C1185.072021,1446.721924 1194.111328,1440.466797 1204.152832,1433.168823 
M836.209656,837.263672 
	C768.574707,819.474060 700.939758,801.684509 633.304749,783.894897 
	C637.142395,791.080994 641.684814,797.142944 647.131165,802.238708 
	C667.817871,821.594055 690.434875,838.486877 714.608337,853.241333 
	C726.807068,860.687012 739.242126,867.709167 753.865112,869.469727 
	C776.222900,872.161682 798.571899,874.932251 820.906921,877.807190 
	C845.204163,880.934875 869.473389,884.279602 893.770264,887.410583 
	C905.464050,888.917419 917.193054,890.150635 930.471497,891.689087 
	C927.242126,885.900024 924.476257,881.449463 922.197571,876.762085 
	C915.317932,862.610718 904.309326,854.395569 888.845825,850.962280 
	C871.695862,847.154541 854.815552,842.131958 836.209656,837.263672 
M1333.039673,794.389038 
	C1275.619873,809.563538 1218.195923,824.722107 1160.782837,839.922058 
	C1143.460083,844.508240 1126.051147,848.821960 1108.898071,853.979980 
	C1095.085327,858.133606 1080.748657,876.746826 1078.941528,891.470398 
	C1095.392090,889.510437 1111.815186,887.668945 1128.206299,885.577209 
	C1163.993042,881.010376 1199.781616,876.448486 1235.532227,871.610535 
	C1250.235840,869.620789 1265.065552,868.564270 1278.671143,861.084900 
	C1308.857544,844.490540 1336.129272,823.993164 1361.515015,800.906128 
	C1366.388428,796.473938 1370.040894,790.699341 1374.256714,785.544128 
	C1373.844849,785.088745 1373.432861,784.633362 1373.020996,784.178040 
	C1360.235107,787.504089 1347.449341,790.830139 1333.039673,794.389038 
M1188.943115,935.682800 
	C1207.226562,937.631348 1224.006226,932.646729 1239.403687,923.426941 
	C1253.907104,914.742493 1268.029175,905.352600 1281.817993,895.566956 
	C1291.129272,888.958923 1299.571777,881.126465 1308.402954,873.841675 
	C1305.667847,872.068787 1303.779907,871.881653 1301.939697,872.098938 
	C1289.453735,873.573059 1276.966431,875.046204 1264.500977,876.682129 
	C1236.616699,880.341370 1208.749390,884.128967 1180.866943,887.802185 
	C1149.037720,891.995422 1117.196533,896.097961 1085.367554,900.293030 
	C1077.354980,901.349060 1070.979614,905.037231 1066.946167,912.309082 
	C1063.905273,917.791626 1060.762573,923.217651 1056.946533,929.933777 
	C1062.944092,930.606934 1067.733032,931.480774 1072.543335,931.620850 
	C1086.506958,932.027527 1100.488403,931.896301 1114.446045,932.421875 
	C1138.621948,933.332275 1162.785156,934.578186 1188.943115,935.682800 
M879.121338,933.682739 
	C887.049866,933.238831 894.973450,932.633118 902.908142,932.388916 
	C914.876831,932.020508 926.857910,932.031189 938.823547,931.599365 
	C942.169556,931.478577 945.479980,930.369080 949.785156,929.520203 
	C946.135803,923.048584 943.147156,917.903381 940.308044,912.676941 
	C936.141541,905.007080 929.428345,901.200134 921.080811,900.099792 
	C879.751099,894.651794 838.407593,889.309021 797.073792,883.892029 
	C768.204163,880.108459 739.346741,876.232178 710.472107,872.488159 
	C706.744202,872.004761 702.945557,872.066711 697.556335,871.793884 
	C700.849365,875.239380 702.526794,877.339661 704.538391,879.045837 
	C724.837036,896.262146 745.936890,912.292664 769.671082,924.669128 
	C784.428711,932.364685 799.636230,936.746338 816.488464,935.795532 
	C836.685425,934.656006 856.929382,934.349548 879.121338,933.682739 
M1320.595703,1361.655884 
	C1317.938721,1376.360474 1315.408691,1391.089600 1312.592163,1405.763550 
	C1309.104980,1423.931274 1326.358887,1445.486938 1342.817993,1444.554565 
	C1343.250488,1442.189209 1343.692261,1439.659912 1344.177246,1437.138794 
	C1346.176392,1426.748413 1347.398315,1416.125854 1350.395630,1406.031006 
	C1354.173828,1393.306641 1359.567139,1381.070557 1363.974365,1368.522217 
	C1371.613037,1346.773560 1380.674072,1325.819458 1395.264526,1307.625488 
	C1399.582031,1302.241821 1399.158691,1301.200195 1394.329712,1295.692139 
	C1387.821899,1288.269409 1379.453979,1283.639893 1370.837158,1279.144165 
	C1364.909546,1276.051636 1360.293945,1276.864014 1355.397583,1280.967773 
	C1346.474121,1288.446533 1341.118164,1298.342651 1336.109253,1308.490479 
	C1328.068848,1324.780151 1324.858887,1342.502808 1320.595703,1361.655884 
M1219.231934,946.309448 
	C1199.652710,945.531799 1180.074463,944.726746 1160.493652,943.992981 
	C1154.506348,943.768555 1148.504028,943.893738 1142.521851,943.594543 
	C1117.343994,942.335327 1092.161255,941.136169 1067.001465,939.572266 
	C1057.408936,938.975952 1050.992676,942.552185 1047.484863,951.486694 
	C1046.543091,953.885498 1045.336548,956.180420 1044.080811,958.891846 
	C1078.100830,966.094238 1111.520752,972.996765 1144.846191,980.328125 
	C1155.103027,982.584656 1165.304810,983.419128 1175.473511,981.247375 
	C1198.107544,976.413391 1218.821045,966.635803 1238.878906,955.389343 
	C1241.992798,953.643433 1244.817749,951.382385 1249.160645,948.413025 
	C1238.704102,947.627258 1229.936646,946.968384 1219.231934,946.309448 
M798.503723,970.258118 
	C809.497681,973.980652 820.267334,978.846313 831.557068,981.061401 
	C840.476257,982.811462 850.158997,982.229919 859.278015,981.007935 
	C870.745972,979.471252 881.973206,976.171753 893.325378,973.730652 
	C916.269897,968.796692 939.228638,963.928650 962.246460,959.019653 
	C956.059753,940.850891 952.829407,938.735291 934.699341,940.038574 
	C925.441162,940.704102 916.167297,941.168823 906.895874,941.629578 
	C892.636719,942.338135 878.377319,943.063843 864.111328,943.605408 
	C838.534607,944.576355 812.949280,945.325928 787.375183,946.357788 
	C778.098389,946.732117 768.843506,947.649658 757.997070,948.433716 
	C771.034485,958.098145 784.045532,963.945496 798.503723,970.258118 
M939.684631,1039.873291 
	C939.684631,1048.268799 939.684631,1056.664185 939.684631,1066.701294 
	C945.235291,1061.853516 950.729248,1058.106934 954.886414,1053.222534 
	C966.180542,1039.952515 973.571960,1024.281250 980.548157,1008.468689 
	C981.714966,1005.823975 981.973083,1002.715088 982.315735,999.781494 
	C983.510437,989.553040 976.452759,982.608826 972.318542,974.412720 
	C968.279663,966.405579 962.933044,963.836853 954.024963,965.563782 
	C943.135498,967.674866 941.885132,968.460205 941.612915,979.426941 
	C941.128052,998.959473 940.460266,1018.487549 939.684631,1039.873291 
M1039.120483,1033.994995 
	C1046.261841,1046.548584 1053.726929,1058.798584 1068.585693,1066.004028 
	C1067.789551,1053.460938 1066.887939,1042.236938 1066.416382,1030.994873 
	C1065.942017,1019.683899 1065.846558,1008.355713 1065.680542,997.033630 
	C1065.584351,990.475586 1065.739380,983.914062 1065.660400,977.355530 
	C1065.611328,973.274109 1065.341797,968.711426 1060.564575,967.603760 
	C1054.853271,966.279480 1048.690796,964.799133 1043.126953,965.748840 
	C1039.917603,966.296570 1037.319092,971.365784 1034.788452,974.662903 
	C1032.567749,977.555908 1030.835693,980.822510 1028.868774,983.911926 
	C1023.200195,992.815979 1022.779846,1001.972961 1027.510254,1011.389893 
	C1031.096436,1018.528687 1034.676392,1025.670654 1039.120483,1033.994995 
M1404.208496,1247.183472 
	C1416.683960,1231.737061 1429.159302,1216.290649 1441.645630,1200.830811 
	C1432.395142,1186.449585 1408.218262,1173.082275 1395.265137,1175.215454 
	C1388.849243,1188.948486 1383.538208,1209.307617 1383.803467,1222.283447 
	C1383.930786,1228.505615 1385.664062,1234.677856 1386.261230,1240.911865 
	C1387.130371,1249.983887 1388.883423,1252.131592 1398.929688,1254.684937 
	C1400.341797,1252.619995 1401.829956,1250.443726 1404.208496,1247.183472 
M888.893738,1046.584717 
	C896.952637,1044.929932 903.676147,1040.783691 909.422119,1035.097900 
	C926.842896,1017.859680 933.735168,996.444824 934.693420,971.603577 
	C927.685059,972.576416 921.516113,973.300720 915.395081,974.314697 
	C907.054199,975.696472 901.959961,980.245972 900.009583,988.892944 
	C896.520142,1004.363403 892.261597,1019.658875 888.578186,1035.088013 
	C887.696228,1038.782349 887.812012,1042.714722 888.893738,1046.584717 
M1090.068115,1026.915527 
	C1097.891479,1036.433960 1106.584595,1044.620972 1120.997681,1047.073853 
	C1115.618286,1025.153076 1110.831543,1004.280640 1105.098511,983.671509 
	C1104.175537,980.353394 1099.430420,976.915710 1095.760986,975.793640 
	C1088.393799,973.540955 1080.549438,972.848511 1072.056763,971.364319 
	C1072.954834,992.105164 1078.209351,1009.826477 1090.068115,1026.915527 
M884.882507,1003.939636 
	C889.347900,997.125916 893.716919,990.278687 893.388916,981.444275 
	C868.602417,984.926575 851.133972,1003.827209 850.340271,1027.813354 
	C865.067749,1025.196289 875.648132,1016.789917 884.882507,1003.939636 
M1117.813721,997.191650 
	C1130.519653,1017.526978 1144.626099,1027.889526 1158.482056,1026.319946 
	C1153.610962,1015.281860 1149.876953,1003.957764 1142.270752,994.636597 
	C1134.968018,985.687439 1124.785034,982.923950 1112.208740,981.141968 
	C1114.257202,987.242493 1115.708252,991.563904 1117.813721,997.191650 
M1206.966797,1857.194824 
	C1206.966797,1857.194824 1206.913330,1857.068481 1206.966797,1857.194824 
z"/>
<path fill="#233565" opacity="1.000000" stroke="none" 
	d="
M2.000000,1034.875000 
	C6.295393,1033.466064 5.736194,1029.827148 6.191120,1027.085205 
	C9.512411,1007.067261 12.921441,987.060120 15.904323,966.990417 
	C22.703875,921.241211 28.934210,875.385437 40.021908,830.410828 
	C47.130589,801.576050 56.316059,773.396912 69.784737,746.812256 
	C82.047440,722.608093 97.788574,700.870789 115.844818,680.576904 
	C136.725494,657.108582 160.682251,636.959229 183.503296,615.581665 
	C201.973129,598.280090 220.194901,580.791504 236.375854,561.241211 
	C244.803436,551.058838 250.978775,539.820190 255.315628,527.454529 
	C258.622345,518.026123 261.916962,508.592987 265.141113,499.136108 
	C268.437622,489.467041 274.068237,481.314423 281.221985,474.154114 
	C309.959320,445.390350 338.153961,416.053741 367.631805,388.069214 
	C396.099915,361.043274 425.847473,335.361603 455.137390,309.206268 
	C468.555115,297.224487 484.599976,295.205658 501.882416,296.777557 
	C519.408630,298.371643 537.029053,298.939636 554.610840,299.910126 
	C561.487366,300.289703 565.168274,297.194366 567.729797,290.460785 
	C580.436401,257.058380 603.567871,233.293091 636.205017,218.799896 
	C653.191895,211.256546 671.048218,209.897278 689.060730,213.077789 
	C697.188721,214.512970 704.513794,214.076950 710.956055,209.354721 
	C721.130676,201.896652 731.128174,194.131393 740.634705,185.846771 
	C749.411377,178.198242 757.180054,169.396606 765.914612,161.694733 
	C770.301270,157.826706 775.503662,154.295227 780.958008,152.375732 
	C787.781006,149.974548 791.949036,153.420746 792.071350,160.719269 
	C792.199341,168.355011 791.537842,176.006714 791.138916,183.647141 
	C790.987549,186.545319 790.606018,189.431473 790.210510,193.565659 
	C793.166138,192.355621 795.094482,191.974136 796.527588,190.919617 
	C830.400635,165.995316 868.459045,149.192078 907.333435,134.084518 
	C932.165527,124.434097 957.299561,115.562958 982.223877,106.145714 
	C987.508240,104.149117 992.209961,104.169540 997.603638,106.127327 
	C1009.141907,110.315414 1018.706909,117.293182 1027.851562,125.160797 
	C1032.133179,128.844437 1036.576172,132.415268 1041.300537,135.493256 
	C1050.355347,141.392517 1060.132324,143.717697 1071.373657,138.584702 
	C1072.868042,156.269867 1074.927856,172.683640 1071.093140,189.048950 
	C1067.934692,202.527802 1059.577515,211.493484 1045.997437,214.729736 
	C1039.252808,216.337021 1032.236572,217.578323 1025.338257,217.602798 
	C1011.718872,217.651184 998.092346,216.220154 984.475342,216.317856 
	C943.139465,216.614441 902.123230,220.137192 861.616821,228.958908 
	C809.800171,240.243881 760.620056,258.838531 714.241211,284.135742 
	C668.647522,309.004791 624.123596,335.835144 579.132751,361.809387 
	C566.731262,368.969055 554.457703,376.360199 541.917053,383.266907 
	C518.670532,396.069794 498.546967,412.788422 479.425995,431.037750 
	C458.485016,451.024078 436.637756,470.058350 415.590454,489.936340 
	C366.350983,536.440186 319.387543,585.020996 281.724121,641.722473 
	C241.185410,702.752563 213.994690,769.280273 201.999146,841.619385 
	C197.435120,869.142822 195.071991,897.034546 191.831177,924.773010 
	C188.667633,951.850281 185.602264,978.939453 182.610138,1006.036255 
	C180.274094,1027.191528 177.621140,1048.328979 176.012543,1069.542969 
	C174.253677,1092.738892 170.050522,1114.921753 157.480362,1135.083984 
	C145.582916,1154.166992 144.760635,1174.829590 148.487244,1196.731934 
	C154.566666,1232.462402 159.058701,1268.463257 164.173172,1304.356812 
	C164.989685,1310.087036 165.559448,1315.852417 166.431076,1323.180664 
	C162.785233,1320.991821 160.907349,1319.738037 158.919464,1318.693726 
	C151.867706,1314.989258 145.822281,1316.575439 142.329712,1323.826660 
	C140.673508,1327.265259 139.131897,1331.919922 140.131241,1335.244019 
	C142.483963,1343.069946 145.596375,1350.928589 149.921890,1357.819580 
	C153.526978,1363.562988 160.280945,1363.526978 165.760361,1359.371826 
	C167.825134,1357.806030 169.643524,1355.915161 172.760162,1353.102173 
	C175.364456,1358.099365 177.895737,1362.213257 179.740692,1366.614868 
	C193.642639,1399.782227 207.333923,1433.037842 221.242310,1466.202637 
	C232.837738,1493.852173 249.346832,1518.197021 270.250000,1539.747437 
	C297.370697,1567.708008 323.501648,1596.647339 351.088440,1624.131836 
	C379.144714,1652.083984 408.402191,1678.833252 437.228455,1706.008667 
	C458.302856,1725.876221 479.641571,1745.463867 500.661835,1765.388062 
	C526.516907,1789.894775 552.204773,1814.578735 577.850525,1839.304810 
	C581.264771,1842.596558 584.453186,1844.212646 589.373413,1842.832886 
	C595.443237,1841.130859 601.772217,1840.370728 607.963745,1839.081177 
	C618.568787,1836.872314 628.747375,1833.870117 634.260620,1823.010254 
	C642.264648,1834.133789 636.750183,1845.364258 616.350464,1859.805176 
	C618.381104,1861.562134 620.071960,1863.460571 622.141724,1864.751587 
	C664.145691,1890.951538 709.177979,1909.495239 758.225647,1917.321045 
	C772.644775,1919.621704 787.295776,1920.662720 801.882385,1921.682129 
	C839.415894,1924.305542 876.768494,1928.560669 913.716492,1935.531006 
	C951.641602,1942.685669 989.321899,1951.131348 1027.172363,1958.696655 
	C1031.857178,1959.632935 1037.160889,1959.549438 1041.784668,1958.381714 
	C1075.753418,1949.802979 1110.096191,1943.672852 1145.110596,1941.771973 
	C1160.035645,1940.961914 1172.985352,1937.091187 1182.017334,1923.805420 
	C1184.867310,1919.613281 1189.884766,1916.608643 1194.426514,1913.938843 
	C1198.418335,1911.592529 1199.853760,1908.605957 1200.215210,1904.305664 
	C1200.739380,1898.070068 1201.687134,1891.869995 1202.570068,1884.715454 
	C1206.047607,1886.812134 1208.694214,1888.407959 1211.942261,1890.366455 
	C1217.675781,1879.709839 1210.670654,1870.941650 1208.532593,1859.818848 
	C1223.260986,1869.209351 1229.335327,1883.969238 1239.596436,1896.198242 
	C1242.216187,1892.564819 1244.366211,1889.342773 1246.757690,1886.311157 
	C1254.174316,1876.909058 1257.256958,1876.722046 1265.144165,1885.161743 
	C1266.714111,1876.405640 1268.264404,1867.759155 1269.865112,1858.831787 
	C1279.296143,1859.954590 1278.054688,1869.772827 1285.177368,1873.428955 
	C1286.913696,1870.024780 1288.737549,1866.750610 1290.289185,1863.352051 
	C1295.497803,1851.943970 1299.714355,1849.825317 1312.155518,1851.349365 
	C1318.064453,1852.073364 1324.106934,1851.707031 1331.073242,1851.937988 
	C1332.057617,1852.041382 1332.210815,1852.183716 1332.210815,1852.183716 
	C1332.096191,1855.506226 1331.901733,1858.828369 1331.886597,1862.151367 
	C1331.866333,1866.622437 1332.489502,1870.985229 1336.911011,1873.360840 
	C1341.344116,1875.742554 1345.599365,1873.927368 1349.073730,1871.352783 
	C1354.943604,1867.003540 1360.348755,1862.029541 1365.986816,1857.363647 
	C1368.442871,1855.331299 1370.991943,1853.411499 1374.017944,1851.032104 
	C1376.183105,1854.045410 1377.787964,1856.078491 1379.179810,1858.248413 
	C1388.166748,1872.259155 1398.384521,1876.388184 1413.064819,1869.285889 
	C1426.771362,1862.654907 1439.778931,1854.413940 1452.562988,1846.067871 
	C1539.332764,1789.420044 1623.140625,1728.594604 1705.541504,1665.811401 
	C1734.935425,1643.415405 1764.048584,1620.651001 1793.311157,1598.082397 
	C1795.850830,1596.123657 1798.550293,1594.371826 1802.270020,1591.753540 
	C1802.270020,1599.810547 1802.270020,1606.483887 1802.270020,1613.157227 
	C1802.789795,1613.244629 1803.309692,1613.332031 1803.829468,1613.419434 
	C1807.008911,1603.788696 1810.188477,1594.157959 1813.616089,1583.775269 
	C1816.270142,1584.938232 1818.295166,1585.772827 1820.275513,1586.702637 
	C1827.963623,1590.312744 1833.241821,1589.858154 1839.313110,1583.772827 
	C1843.266235,1579.810425 1846.709106,1575.173584 1849.642578,1570.386597 
	C1865.844849,1543.945923 1886.710327,1521.724487 1910.610718,1502.201660 
	C1913.442627,1499.888428 1916.458496,1497.792847 1919.466553,1495.707886 
	C1920.224976,1495.182251 1921.281616,1495.086914 1923.922974,1494.244995 
	C1922.929077,1497.892090 1922.451050,1500.563965 1921.486816,1503.046997 
	C1907.139038,1539.996948 1891.676147,1576.434814 1874.252319,1612.086182 
	C1847.844604,1666.119995 1817.225464,1717.513672 1780.478149,1765.118042 
	C1764.213745,1786.187500 1746.876831,1806.434082 1729.828369,1826.888916 
	C1726.275879,1831.151245 1724.343994,1835.375854 1723.917969,1841.100342 
	C1723.381714,1848.305054 1721.717163,1855.597900 1719.385986,1862.460815 
	C1714.683838,1876.304443 1704.263916,1883.085938 1689.849487,1883.691650 
	C1682.864502,1883.985229 1675.741699,1882.992310 1668.894531,1884.012085 
	C1662.145142,1885.017578 1655.241699,1886.991211 1649.169922,1890.054199 
	C1640.973511,1894.189453 1640.086914,1898.699829 1643.664429,1907.471313 
	C1644.542969,1909.625244 1645.488525,1911.751953 1646.291992,1914.844482 
	C1646.180664,1915.797729 1645.848755,1916.196411 1645.848755,1916.196411 
	C1643.280884,1914.657227 1640.656250,1913.204590 1638.155640,1911.563110 
	C1630.205933,1906.344971 1621.507812,1904.454712 1612.385010,1906.965088 
	C1600.517578,1910.230591 1588.764160,1913.960327 1577.106689,1917.917358 
	C1571.136841,1919.943726 1569.856567,1923.504028 1573.471680,1928.689575 
	C1576.864258,1933.555664 1581.441650,1937.583740 1585.378174,1942.084839 
	C1596.001465,1954.232178 1603.162964,1967.784912 1602.197632,1984.530884 
	C1602.141357,1985.507935 1601.847290,1986.479370 1601.581665,1987.430542 
	C1601.514038,1987.672485 1601.130859,1987.826294 1599.909790,1988.822144 
	C1595.759399,1984.517334 1591.430908,1980.152710 1587.246826,1975.653931 
	C1582.941895,1971.025269 1578.628052,1966.390015 1574.598511,1961.525391 
	C1571.200684,1957.423584 1567.595947,1956.695190 1563.367065,1959.901489 
	C1554.889893,1966.328857 1545.681152,1972.036377 1538.191162,1979.468628 
	C1523.793091,1993.755371 1510.462646,2009.112671 1496.524658,2023.870483 
	C1490.121826,2030.650024 1483.446289,2037.185059 1476.678955,2043.603760 
	C1470.791138,2049.188232 1467.541260,2055.666016 1467.737183,2063.927979 
	C1467.947998,2072.819336 1467.785034,2081.719971 1467.785034,2091.520508 
	C1462.672241,2091.756104 1458.453003,2092.108398 1454.233521,2092.110107 
	C1446.572144,2092.113281 1438.906006,2091.681396 1431.250244,2091.837158 
	C1416.601440,2092.135498 1409.522949,2098.095459 1407.945312,2112.492920 
	C1407.015625,2120.976562 1407.635376,2129.627930 1407.517944,2138.203369 
	C1407.491577,2140.127441 1407.296631,2142.049316 1407.153564,2144.394043 
	C1396.799683,2144.198730 1389.871460,2138.952148 1383.944580,2131.873291 
	C1378.603149,2125.493896 1373.415039,2118.983887 1367.978760,2112.687256 
	C1362.925415,2106.833740 1356.667847,2105.294678 1349.037109,2107.109131 
	C1332.200928,2111.112549 1315.179443,2114.350098 1298.388672,2118.524414 
	C1291.334961,2120.278076 1284.629395,2123.504639 1277.861938,2126.295410 
	C1275.803223,2127.144531 1274.066284,2128.774414 1271.880005,2130.250244 
	C1272.556030,2133.405029 1273.309448,2136.255127 1273.759888,2139.152100 
	C1274.936890,2146.723145 1271.985229,2151.466553 1264.620972,2151.428711 
	C1255.449097,2151.381836 1246.312256,2150.813232 1237.685059,2146.066406 
	C1222.825806,2137.890625 1207.828735,2129.738281 1192.194458,2123.251465 
	C1170.024902,2114.052979 1147.008789,2112.762695 1123.744751,2120.094727 
	C1120.524658,2121.109619 1116.470215,2120.978027 1113.181763,2120.042480 
	C1079.728882,2110.524658 1045.716553,2104.709961 1010.914062,2103.745117 
	C992.957764,2103.247070 974.969666,2101.809570 957.053955,2102.441895 
	C932.492920,2103.309570 907.951965,2105.358154 883.467712,2107.610352 
	C859.632385,2109.802979 835.880981,2112.903564 812.086060,2115.545654 
	C810.814880,2115.686768 809.481995,2115.273193 808.008667,2115.097900 
	C802.558777,2106.204102 812.093018,2095.791992 804.662720,2086.779785 
	C802.921814,2088.084717 801.275330,2089.619385 799.368713,2090.691650 
	C793.193481,2094.164795 786.920593,2095.297363 780.574219,2090.947021 
	C732.845947,2058.230225 680.010864,2034.774414 629.362610,2007.344360 
	C619.654541,2002.086792 610.151917,2000.008179 599.121521,1999.954956 
	C563.167847,1999.781860 530.276062,1989.309204 501.307281,1967.536133 
	C494.668976,1962.546753 488.361359,1957.028198 481.338257,1952.658569 
	C466.472809,1943.409424 449.646484,1940.863525 432.526093,1940.297241 
	C420.540314,1939.900757 408.519714,1939.885986 396.534210,1940.285767 
	C368.797302,1941.211182 345.094177,1930.758911 323.641205,1914.463013 
	C296.146820,1893.578003 279.316132,1864.937256 268.188995,1833.041382 
	C262.078735,1815.526489 258.318695,1797.143799 254.234756,1778.986694 
	C251.462128,1766.659668 247.583878,1755.077637 237.787430,1746.679810 
	C233.600906,1743.090942 228.439072,1739.212036 223.301468,1738.503784 
	C216.049911,1737.504028 214.295685,1733.364380 212.278946,1727.796143 
	C199.691879,1693.043579 187.570557,1658.098999 173.958054,1623.747803 
	C161.327133,1591.873413 147.152191,1560.605835 133.433044,1529.168823 
	C113.717957,1483.992554 93.686760,1438.953979 74.032600,1393.751465 
	C67.599297,1378.955444 64.564522,1363.249512 64.267136,1347.117554 
	C64.027748,1334.131958 64.174309,1321.138306 64.262474,1308.148804 
	C64.277618,1305.918335 64.858223,1303.691772 65.209572,1301.240479 
	C69.646973,1301.569336 73.595207,1302.213623 77.516602,1302.078491 
	C85.415092,1301.806396 90.169289,1297.465088 90.016541,1289.571899 
	C89.862892,1281.632568 88.869453,1273.630615 87.421463,1265.808228 
	C79.144188,1221.093018 66.412834,1177.641113 47.839260,1136.127686 
	C35.743160,1109.092041 22.172554,1082.713989 9.116418,1056.113037 
	C7.699455,1053.226074 5.311553,1050.815552 2.687018,1048.092041 
	C2.000000,1043.916626 2.000000,1039.833374 2.000000,1034.875000 
M154.156219,1444.492065 
	C154.424728,1444.747559 154.693237,1445.003174 154.961746,1445.258667 
	C154.625778,1444.839966 154.289810,1444.421265 153.929184,1442.426025 
	C151.206512,1432.907349 148.624420,1423.345459 145.707123,1413.886841 
	C144.025299,1408.433960 140.995911,1406.923706 137.105652,1408.943481 
	C132.465012,1411.353149 130.171890,1416.776978 133.219620,1420.513184 
	C139.815231,1428.598877 147.085526,1436.134155 154.156219,1444.492065 
M179.750381,1456.689819 
	C184.484451,1469.811768 193.387283,1477.626099 204.243683,1478.434326 
	C196.796921,1461.639648 189.370117,1444.680176 181.741394,1427.811768 
	C179.421692,1422.682617 176.761292,1417.675171 173.854874,1412.854126 
	C171.549347,1409.030029 168.724503,1405.434204 162.693222,1404.949219 
	C163.276352,1407.128296 163.361572,1408.455688 163.951187,1409.497681 
	C172.000336,1423.722778 179.299026,1438.187744 179.750381,1456.689819 
z"/>
<path fill="#233565" opacity="1.000000" stroke="none" 
	d="
M2002.000000,937.125000 
	C2000.311279,940.163025 1997.725220,942.085999 1997.072388,944.526123 
	C1990.537964,968.951477 1983.413452,993.271362 1978.224487,1017.992432 
	C1970.016235,1057.097046 1966.396729,1096.886597 1963.312744,1139.186646 
	C1961.593140,1135.486450 1960.447144,1133.813232 1960.017944,1131.972900 
	C1956.132202,1115.311401 1954.849609,1098.315552 1956.095093,1081.364380 
	C1957.994019,1055.516724 1960.995361,1029.750610 1963.481812,1003.945251 
	C1963.829346,1000.339478 1963.910034,996.708008 1964.222168,991.175903 
	C1960.695923,994.302307 1958.477173,996.444824 1956.079224,998.363159 
	C1948.271851,1004.608398 1940.781372,1003.244202 1936.507568,994.211792 
	C1934.731445,990.457947 1934.378662,985.937744 1933.864380,981.706970 
	C1933.384277,977.757263 1934.381226,973.459656 1933.200439,969.809326 
	C1931.942017,965.919006 1929.691406,961.476318 1926.499146,959.221313 
	C1897.740234,938.906982 1877.972656,911.103943 1860.809937,881.163452 
	C1854.362549,869.915894 1849.057861,858.018799 1842.959351,846.563110 
	C1840.542969,842.023865 1841.137817,837.914185 1842.293823,833.170898 
	C1845.124390,821.556335 1848.782837,809.843079 1849.355957,798.035950 
	C1850.963379,764.919983 1840.125854,737.011353 1810.908081,718.595886 
	C1795.080444,708.620117 1781.196533,696.746704 1773.706177,679.311646 
	C1762.276367,652.707275 1750.538696,626.109558 1745.511719,597.303162 
	C1743.462646,585.560669 1741.805664,573.722473 1743.603516,561.699768 
	C1744.083862,558.486755 1743.676147,555.140991 1743.676147,550.219971 
	C1739.897339,551.607422 1737.232788,552.386963 1734.739136,553.536987 
	C1725.671387,557.718689 1716.779541,562.302246 1707.601196,566.218201 
	C1693.896362,572.065308 1681.528442,570.000000 1669.188599,561.062988 
	C1619.277954,524.915649 1569.007690,489.264160 1518.801025,453.526764 
	C1454.985229,408.102295 1389.800049,364.790985 1321.705933,325.964996 
	C1314.276489,321.728943 1306.715820,319.990387 1298.086426,319.538452 
	C1254.437866,317.252716 1213.069458,307.311371 1177.756226,279.748047 
	C1166.705688,271.122772 1156.430176,261.638000 1151.102173,248.001022 
	C1141.586548,223.645111 1155.724854,196.302292 1181.602295,192.106216 
	C1203.890503,188.492157 1226.552368,187.027206 1249.063721,194.536972 
	C1250.766357,191.583069 1252.250000,188.638000 1254.070190,185.918137 
	C1260.764526,175.914368 1269.431396,169.847519 1282.232178,170.107803 
	C1299.216919,170.453156 1316.221802,170.061737 1333.212646,169.716599 
	C1341.176147,169.554825 1349.147339,168.112106 1357.079712,168.362701 
	C1394.519409,169.545395 1431.157227,175.279800 1466.880371,187.105148 
	C1499.833008,198.013336 1532.230835,210.202789 1563.217041,225.832397 
	C1622.666748,255.819122 1675.648926,294.495728 1720.617798,343.896667 
	C1734.642456,359.303619 1745.225220,377.004974 1756.171265,394.493195 
	C1792.225952,452.096832 1828.161133,509.775085 1864.173706,567.405090 
	C1888.005005,605.542175 1911.811646,643.695312 1935.827148,681.716248 
	C1939.952271,688.247070 1940.728027,695.447021 1941.658325,702.642517 
	C1946.391724,739.253479 1951.468994,775.832581 1955.362549,812.535645 
	C1958.447998,841.622742 1960.272217,870.855408 1962.125854,900.057068 
	C1963.221313,917.311768 1963.268677,934.632568 1963.837769,951.921936 
	C1963.891357,953.550720 1964.306641,955.167542 1964.581177,956.969482 
	C1970.805176,958.771729 1974.118652,954.811829 1977.149658,950.951233 
	C1979.602905,947.826416 1981.423584,944.206726 1983.543335,940.818054 
	C1987.869019,933.903198 1993.434448,928.300476 2001.390747,924.296631 
	C2002.000000,928.083313 2002.000000,932.166687 2002.000000,937.125000 
z"/>
<path fill="#233565" opacity="1.000000" stroke="none" 
	d="
M1051.333984,1187.332764 
	C1061.741821,1179.530273 1071.707886,1172.309692 1081.509888,1164.872803 
	C1085.311890,1161.988037 1088.743042,1158.614380 1092.212891,1154.470581 
	C1112.146606,1155.828613 1129.742065,1163.902466 1145.527710,1175.765015 
	C1105.994873,1269.290527 1093.695801,1366.253784 1095.952148,1466.209473 
	C1093.375244,1466.765503 1091.122192,1467.879028 1089.063843,1467.592529 
	C1077.150879,1465.934448 1065.567261,1463.104004 1054.897339,1457.195923 
	C1048.766235,1453.801025 1046.081665,1449.157104 1046.082520,1441.874146 
	C1046.086426,1407.239990 1048.096558,1372.768677 1052.905884,1338.462646 
	C1053.215698,1336.253052 1052.946411,1333.962402 1052.946411,1331.325195 
	C1050.821533,1330.924683 1048.923218,1330.318237 1047.004150,1330.243164 
	C1024.408203,1329.359253 1001.802246,1328.699341 979.216064,1327.621948 
	C973.996460,1327.372925 971.485962,1329.561279 969.178772,1333.827881 
	C950.535095,1368.306519 936.197021,1404.351929 928.856812,1442.987549 
	C928.113037,1446.902466 927.838074,1450.904297 927.210449,1454.844116 
	C926.592041,1458.726318 925.801941,1462.581299 924.883118,1467.551270 
	C914.953003,1465.148682 905.878052,1462.284546 898.124817,1456.373901 
	C891.419861,1451.262329 890.511108,1443.740234 892.664307,1436.409546 
	C896.218018,1424.310303 899.774170,1412.047974 905.056213,1400.655029 
	C915.549133,1378.022827 927.222656,1355.938110 938.390808,1333.618286 
	C939.381470,1331.638428 940.242493,1329.593628 941.681519,1326.446411 
	C931.912476,1325.949097 923.255432,1325.508301 914.318542,1325.053223 
	C914.980591,1318.363647 919.466248,1316.836792 923.256470,1315.432495 
	C930.727966,1312.664062 938.337524,1309.857056 946.138977,1308.524902 
	C952.067383,1307.512451 955.638794,1304.910767 958.589478,1300.030762 
	C972.918396,1276.333008 989.451233,1254.223511 1007.251770,1233.030151 
	C1020.748047,1216.961426 1034.610840,1201.265991 1051.333984,1187.332764 
M1060.505371,1293.496338 
	C1066.560791,1267.305176 1072.659424,1241.124023 1078.621460,1214.911621 
	C1079.442627,1211.301147 1079.585815,1207.536621 1080.191650,1202.642944 
	C1067.118164,1207.172974 1058.707031,1215.259155 1050.319092,1223.118774 
	C1027.397827,1244.596680 1008.701050,1269.556030 991.644836,1295.799683 
	C990.652832,1297.326050 990.212280,1299.210693 989.062378,1302.044312 
	C993.381042,1302.044312 996.625488,1302.166626 999.858154,1302.023315 
	C1014.762512,1301.362549 1029.662964,1300.613159 1044.566406,1299.930786 
	C1047.883789,1299.778809 1051.343994,1300.304077 1054.480713,1299.505371 
	C1056.600708,1298.965576 1058.268921,1296.652466 1060.505371,1293.496338 
z"/>
<path fill="#233565" opacity="1.000000" stroke="none" 
	d="
M534.064819,1214.152710 
	C506.377563,1279.693359 484.297913,1346.313354 467.406189,1414.635620 
	C463.735138,1429.483887 461.031555,1444.570557 457.842010,1459.538940 
	C457.158661,1462.745972 456.300171,1465.915649 455.252411,1470.208618 
	C451.305237,1469.473999 447.700287,1469.345825 444.522308,1468.114990 
	C432.363190,1463.406128 422.936584,1455.248535 415.507690,1444.546265 
	C412.376831,1440.035645 411.754883,1435.825195 413.545044,1430.548340 
	C427.128052,1390.509521 440.334076,1350.342529 453.962982,1310.319580 
	C464.587036,1279.120728 475.713104,1248.093262 486.451477,1216.932861 
	C488.131134,1212.058716 488.934143,1206.882690 490.528625,1200.236694 
	C479.100677,1201.272583 469.314056,1202.374878 459.496857,1202.988525 
	C449.878998,1203.589966 440.127197,1204.736938 430.616180,1203.798828 
	C410.864716,1201.851074 399.929016,1186.553833 404.451904,1164.896973 
	C405.296387,1160.853271 407.944794,1159.894531 411.910370,1160.353638 
	C423.118164,1161.651123 434.359680,1163.461548 445.595490,1163.516357 
	C460.864838,1163.590820 476.153778,1162.415649 491.410431,1161.412720 
	C502.673981,1160.672119 513.895752,1159.311401 525.142395,1158.296387 
	C547.317505,1156.295166 569.492920,1154.293335 591.678589,1152.414551 
	C595.648071,1152.078491 599.717896,1151.923706 603.653015,1152.406250 
	C610.476074,1153.242920 616.389221,1156.107666 620.501465,1161.946167 
	C625.197693,1168.613647 628.873779,1180.362915 629.307617,1190.629150 
	C623.708313,1192.894531 617.809814,1191.441528 612.004272,1191.411865 
	C598.082214,1191.340698 584.158813,1191.272217 570.237610,1191.395264 
	C564.251404,1191.448120 558.270142,1191.992554 552.285278,1192.287598 
	C546.469727,1192.574219 542.250183,1194.687012 540.281433,1200.797241 
	C538.863892,1205.196777 536.385193,1209.254272 534.064819,1214.152710 
z"/>
<path fill="#233565" opacity="1.000000" stroke="none" 
	d="
M1521.919434,1338.150146 
	C1510.168457,1348.412964 1498.629639,1357.940430 1487.931519,1368.333374 
	C1463.200317,1392.359009 1444.124756,1421.035400 1423.318848,1448.280518 
	C1422.107056,1449.867310 1420.970337,1451.546875 1419.557373,1452.938232 
	C1414.871582,1457.552490 1411.169189,1457.922607 1406.680542,1453.095459 
	C1398.708008,1444.521973 1394.219360,1434.224976 1395.395996,1422.327148 
	C1398.949829,1386.391846 1411.226929,1352.919922 1425.954834,1320.393066 
	C1434.586670,1301.329590 1445.025757,1283.069092 1455.023926,1264.649292 
	C1457.824829,1259.489014 1461.945557,1255.045166 1465.474121,1250.254639 
	C1473.966675,1251.790771 1479.443604,1256.564087 1484.389771,1261.983643 
	C1487.071655,1264.922241 1489.326294,1268.272827 1491.599976,1271.557617 
	C1497.919922,1280.687988 1499.866821,1289.500732 1493.352417,1300.102539 
	C1480.282471,1321.373779 1468.236206,1343.278198 1455.945190,1365.021851 
	C1451.922363,1372.138550 1447.423340,1379.158447 1446.120850,1389.500244 
	C1448.926270,1386.849487 1450.590576,1385.531982 1451.951172,1383.953003 
	C1473.247559,1359.238403 1493.628418,1333.702026 1517.425415,1311.237793 
	C1528.830811,1300.471191 1540.591553,1290.146973 1554.418701,1282.528687 
	C1558.191406,1280.450317 1562.114502,1278.423340 1566.215698,1277.202148 
	C1582.767822,1272.273438 1593.515259,1280.013062 1600.856567,1291.813354 
	C1602.545654,1294.528442 1602.967041,1297.309814 1600.047729,1299.855225 
	C1586.600952,1311.579956 1579.423828,1327.521606 1571.765137,1343.001831 
	C1562.732910,1361.258545 1555.285156,1380.177612 1552.889404,1400.627197 
	C1552.357178,1405.170166 1552.409180,1409.983643 1553.315552,1414.444458 
	C1554.613159,1420.830688 1557.777222,1422.718262 1564.182617,1421.751343 
	C1567.442383,1421.259277 1570.591675,1420.009644 1573.775757,1419.052246 
	C1576.625732,1418.195312 1579.569702,1418.313721 1580.389404,1421.440796 
	C1580.962158,1423.625244 1580.765503,1427.369629 1579.367920,1428.489502 
	C1571.011353,1435.185181 1561.957275,1440.866333 1550.958740,1442.118408 
	C1547.668701,1442.492920 1544.290161,1442.343384 1540.968994,1442.148682 
	C1525.957031,1441.269043 1515.345215,1432.106323 1512.427979,1417.403687 
	C1510.135132,1405.848633 1509.917969,1394.162354 1513.400879,1382.898682 
	C1517.525879,1369.557983 1522.592773,1356.508911 1527.236938,1343.328369 
	C1528.068604,1340.967651 1528.829590,1338.582275 1530.116577,1334.733521 
	C1526.568726,1336.168091 1524.541260,1336.988037 1521.919434,1338.150146 
z"/>
<path fill="#233565" opacity="1.000000" stroke="none" 
	d="
M587.697571,1285.690918 
	C596.394165,1278.958130 603.942261,1271.512695 612.916321,1266.759277 
	C631.906372,1256.700684 636.856873,1258.518921 652.193054,1273.931396 
	C656.480469,1278.239990 661.214600,1282.929688 661.791992,1290.265137 
	C660.808472,1290.986328 659.900879,1292.097290 658.770813,1292.413818 
	C638.268677,1298.156860 623.294739,1311.893433 609.755615,1327.200562 
	C592.552856,1346.649658 579.778870,1368.757080 573.506165,1394.212158 
	C572.157654,1399.684570 570.843933,1405.300903 570.695984,1410.882324 
	C570.608765,1414.174072 572.005005,1418.496948 574.331360,1420.510742 
	C575.869385,1421.842407 581.129639,1420.958618 583.188721,1419.234131 
	C591.040833,1412.658325 599.127319,1406.039062 605.564331,1398.160156 
	C622.044067,1377.988892 634.989441,1355.401978 647.501770,1332.630371 
	C655.355896,1318.336304 662.702881,1303.763062 670.228943,1289.289795 
	C674.321777,1281.418945 675.761230,1280.569946 684.366577,1283.114868 
	C688.791443,1284.423340 693.213684,1286.138672 697.206665,1288.422607 
	C704.378906,1292.524902 704.553955,1293.688354 701.325317,1301.161011 
	C698.684875,1307.272461 695.970398,1313.351929 693.323303,1319.460571 
	C683.766663,1341.514404 675.901123,1364.147949 671.271973,1387.758423 
	C669.109558,1398.787354 666.272644,1409.991211 669.706909,1421.306519 
	C671.513489,1427.258789 673.797852,1433.066040 675.995300,1439.304565 
	C668.907104,1445.714111 652.118042,1448.615479 643.315796,1444.410889 
	C636.193298,1441.008911 633.216309,1434.465576 632.595764,1427.433228 
	C631.871033,1419.220703 632.417908,1410.841553 633.048523,1402.583130 
	C633.470947,1397.050171 634.999146,1391.601685 634.424622,1385.116821 
	C632.884949,1386.832153 631.070190,1388.372314 629.849487,1390.290527 
	C620.507935,1404.970459 609.918396,1418.624390 596.952759,1430.294067 
	C593.009766,1433.843018 588.806519,1437.156494 584.446045,1440.178955 
	C565.146851,1453.556396 549.007690,1444.239258 540.569397,1426.414551 
	C533.882568,1412.289185 534.438171,1397.103149 536.995422,1382.254639 
	C542.679199,1349.253174 558.157532,1320.813110 579.411072,1295.297974 
	C581.965576,1292.231201 584.598511,1289.229736 587.697571,1285.690918 
M636.659241,1379.908813 
	C636.794556,1379.822632 636.929810,1379.736450 636.659241,1379.908813 
z"/>
<path fill="#233565" opacity="1.000000" stroke="none" 
	d="
M803.256409,1275.292725 
	C786.351074,1316.735596 772.246338,1358.295898 762.631470,1401.278442 
	C758.561523,1419.472778 755.397766,1437.822754 755.733765,1456.598999 
	C755.784790,1459.452637 755.222107,1462.317505 754.926331,1465.351685 
	C748.560181,1466.339233 744.493164,1464.066528 741.196716,1459.887207 
	C739.551575,1457.801514 738.271667,1455.210571 736.200867,1453.713623 
	C724.189453,1445.030762 722.999146,1432.057983 722.277466,1419.018066 
	C721.194275,1399.445435 725.989746,1380.664307 731.183167,1362.083130 
	C747.434082,1303.940552 769.077698,1247.799683 794.241211,1192.948120 
	C804.266052,1171.095947 815.831055,1150.191406 829.123535,1130.203247 
	C830.597107,1127.987549 832.134338,1125.803345 833.787964,1123.720459 
	C839.225098,1116.872070 841.298096,1115.903564 849.031860,1119.739380 
	C858.830505,1124.599121 868.445740,1129.963013 877.605652,1135.930054 
	C883.772949,1139.947632 883.525940,1142.053589 878.664978,1147.972534 
	C847.154785,1186.341675 822.363464,1228.688965 803.256409,1275.292725 
z"/>
<path fill="#233565" opacity="1.000000" stroke="none" 
	d="
M1203.602661,1433.624268 
	C1194.111328,1440.466797 1185.072021,1446.721924 1176.267212,1453.291626 
	C1171.233398,1457.047241 1166.592529,1456.604980 1161.504028,1453.564453 
	C1149.354858,1446.305542 1144.601440,1435.393921 1149.477173,1422.087524 
	C1159.623413,1394.397949 1161.947266,1365.692749 1161.693726,1336.609985 
	C1161.586548,1324.319214 1160.337036,1312.036255 1160.299683,1299.747559 
	C1160.223389,1274.602783 1169.620483,1265.994751 1194.764893,1267.985596 
	C1199.906250,1268.392822 1204.939575,1270.163208 1210.467651,1271.405151 
	C1210.109497,1275.505615 1209.915405,1278.427124 1209.589478,1281.333862 
	C1208.369019,1292.219849 1206.621338,1303.072021 1205.966919,1313.990479 
	C1204.872437,1332.246704 1205.072632,1350.594116 1203.574585,1368.808228 
	C1202.406250,1383.013916 1199.489014,1397.076050 1197.342773,1411.201050 
	C1197.009521,1413.394775 1196.644287,1415.583618 1197.084106,1418.218506 
	C1214.025513,1404.347412 1226.319458,1386.693726 1239.177368,1369.477173 
	C1252.019897,1352.281250 1262.246338,1333.579956 1270.911743,1314.099609 
	C1279.674805,1294.399414 1287.279419,1274.183960 1295.660767,1253.530396 
	C1295.627563,1253.536865 1296.640991,1253.032227 1297.500244,1253.222656 
	C1320.865356,1258.400513 1320.701172,1262.115356 1316.003052,1281.427002 
	C1311.788086,1298.752075 1303.614868,1314.501831 1294.154785,1329.440674 
	C1269.402710,1368.528320 1239.413452,1403.156738 1203.602661,1433.624268 
z"/>
<path fill="#233565" opacity="1.000000" stroke="none" 
	d="
M837.013733,837.451050 
	C854.815552,842.131958 871.695862,847.154541 888.845825,850.962280 
	C904.309326,854.395569 915.317932,862.610718 922.197571,876.762085 
	C924.476257,881.449463 927.242126,885.900024 930.471497,891.689087 
	C917.193054,890.150635 905.464050,888.917419 893.770264,887.410583 
	C869.473389,884.279602 845.204163,880.934875 820.906921,877.807190 
	C798.571899,874.932251 776.222900,872.161682 753.865112,869.469727 
	C739.242126,867.709167 726.807068,860.687012 714.608337,853.241333 
	C690.434875,838.486877 667.817871,821.594055 647.131165,802.238708 
	C641.684814,797.142944 637.142395,791.080994 633.304749,783.894897 
	C700.939758,801.684509 768.574707,819.474060 837.013733,837.451050 
z"/>
<path fill="#233565" opacity="1.000000" stroke="none" 
	d="
M1333.851562,794.272583 
	C1347.449341,790.830139 1360.235107,787.504089 1373.020996,784.178040 
	C1373.432861,784.633362 1373.844849,785.088745 1374.256714,785.544128 
	C1370.040894,790.699341 1366.388428,796.473938 1361.515015,800.906128 
	C1336.129272,823.993164 1308.857544,844.490540 1278.671143,861.084900 
	C1265.065552,868.564270 1250.235840,869.620789 1235.532227,871.610535 
	C1199.781616,876.448486 1163.993042,881.010376 1128.206299,885.577209 
	C1111.815186,887.668945 1095.392090,889.510437 1078.941528,891.470398 
	C1080.748657,876.746826 1095.085327,858.133606 1108.898071,853.979980 
	C1126.051147,848.821960 1143.460083,844.508240 1160.782837,839.922058 
	C1218.195923,824.722107 1275.619873,809.563538 1333.851562,794.272583 
z"/>
<path fill="#233565" opacity="1.000000" stroke="none" 
	d="
M1187.948486,935.683044 
	C1162.785156,934.578186 1138.621948,933.332275 1114.446045,932.421875 
	C1100.488403,931.896301 1086.506958,932.027527 1072.543335,931.620850 
	C1067.733032,931.480774 1062.944092,930.606934 1056.946533,929.933777 
	C1060.762573,923.217651 1063.905273,917.791626 1066.946167,912.309082 
	C1070.979614,905.037231 1077.354980,901.349060 1085.367554,900.293030 
	C1117.196533,896.097961 1149.037720,891.995422 1180.866943,887.802185 
	C1208.749390,884.128967 1236.616699,880.341370 1264.500977,876.682129 
	C1276.966431,875.046204 1289.453735,873.573059 1301.939697,872.098938 
	C1303.779907,871.881653 1305.667847,872.068787 1308.402954,873.841675 
	C1299.571777,881.126465 1291.129272,888.958923 1281.817993,895.566956 
	C1268.029175,905.352600 1253.907104,914.742493 1239.403687,923.426941 
	C1224.006226,932.646729 1207.226562,937.631348 1187.948486,935.683044 
z"/>
<path fill="#233565" opacity="1.000000" stroke="none" 
	d="
M878.137146,933.682556 
	C856.929382,934.349548 836.685425,934.656006 816.488464,935.795532 
	C799.636230,936.746338 784.428711,932.364685 769.671082,924.669128 
	C745.936890,912.292664 724.837036,896.262146 704.538391,879.045837 
	C702.526794,877.339661 700.849365,875.239380 697.556335,871.793884 
	C702.945557,872.066711 706.744202,872.004761 710.472107,872.488159 
	C739.346741,876.232178 768.204163,880.108459 797.073792,883.892029 
	C838.407593,889.309021 879.751099,894.651794 921.080811,900.099792 
	C929.428345,901.200134 936.141541,905.007080 940.308044,912.676941 
	C943.147156,917.903381 946.135803,923.048584 949.785156,929.520203 
	C945.479980,930.369080 942.169556,931.478577 938.823547,931.599365 
	C926.857910,932.031189 914.876831,932.020508 902.908142,932.388916 
	C894.973450,932.633118 887.049866,933.238831 878.137146,933.682556 
z"/>
<path fill="#233565" opacity="1.000000" stroke="none" 
	d="
M1320.828613,1360.849731 
	C1324.858887,1342.502808 1328.068848,1324.780151 1336.109253,1308.490479 
	C1341.118164,1298.342651 1346.474121,1288.446533 1355.397583,1280.967773 
	C1360.293945,1276.864014 1364.909546,1276.051636 1370.837158,1279.144165 
	C1379.453979,1283.639893 1387.821899,1288.269409 1394.329712,1295.692139 
	C1399.158691,1301.200195 1399.582031,1302.241821 1395.264526,1307.625488 
	C1380.674072,1325.819458 1371.613037,1346.773560 1363.974365,1368.522217 
	C1359.567139,1381.070557 1354.173828,1393.306641 1350.395630,1406.031006 
	C1347.398315,1416.125854 1346.176392,1426.748413 1344.177246,1437.138794 
	C1343.692261,1439.659912 1343.250488,1442.189209 1342.817993,1444.554565 
	C1326.358887,1445.486938 1309.104980,1423.931274 1312.592163,1405.763550 
	C1315.408691,1391.089600 1317.938721,1376.360474 1320.828613,1360.849731 
z"/>
<path fill="#88D4B8" opacity="1.000000" stroke="none" 
	d="
M1220.200562,946.309509 
	C1229.936646,946.968384 1238.704102,947.627258 1249.160645,948.413025 
	C1244.817749,951.382385 1241.992798,953.643433 1238.878906,955.389343 
	C1218.821045,966.635803 1198.107544,976.413391 1175.473511,981.247375 
	C1165.304810,983.419128 1155.103027,982.584656 1144.846191,980.328125 
	C1111.520752,972.996765 1078.100830,966.094238 1044.080811,958.891846 
	C1045.336548,956.180420 1046.543091,953.885498 1047.484863,951.486694 
	C1050.992676,942.552185 1057.408936,938.975952 1067.001465,939.572266 
	C1092.161255,941.136169 1117.343994,942.335327 1142.521851,943.594543 
	C1148.504028,943.893738 1154.506348,943.768555 1160.493652,943.992981 
	C1180.074463,944.726746 1199.652710,945.531799 1220.200562,946.309509 
z"/>
<path fill="#88D4B8" opacity="1.000000" stroke="none" 
	d="
M797.775269,970.034180 
	C784.045532,963.945496 771.034485,958.098145 757.997070,948.433716 
	C768.843506,947.649658 778.098389,946.732117 787.375183,946.357788 
	C812.949280,945.325928 838.534607,944.576355 864.111328,943.605408 
	C878.377319,943.063843 892.636719,942.338135 906.895874,941.629578 
	C916.167297,941.168823 925.441162,940.704102 934.699341,940.038574 
	C952.829407,938.735291 956.059753,940.850891 962.246460,959.019653 
	C939.228638,963.928650 916.269897,968.796692 893.325378,973.730652 
	C881.973206,976.171753 870.745972,979.471252 859.278015,981.007935 
	C850.158997,982.229919 840.476257,982.811462 831.557068,981.061401 
	C820.267334,978.846313 809.497681,973.980652 797.775269,970.034180 
z"/>
<path fill="#88D4B8" opacity="1.000000" stroke="none" 
	d="
M939.776855,1038.945312 
	C940.460266,1018.487549 941.128052,998.959473 941.612915,979.426941 
	C941.885132,968.460205 943.135498,967.674866 954.024963,965.563782 
	C962.933044,963.836853 968.279663,966.405579 972.318542,974.412720 
	C976.452759,982.608826 983.510437,989.553040 982.315735,999.781494 
	C981.973083,1002.715088 981.714966,1005.823975 980.548157,1008.468689 
	C973.571960,1024.281250 966.180542,1039.952515 954.886414,1053.222534 
	C950.729248,1058.106934 945.235291,1061.853516 939.684631,1066.701294 
	C939.684631,1056.664185 939.684631,1048.268799 939.776855,1038.945312 
z"/>
<path fill="#88D4B8" opacity="1.000000" stroke="none" 
	d="
M1038.689697,1033.403076 
	C1034.676392,1025.670654 1031.096436,1018.528687 1027.510254,1011.389893 
	C1022.779846,1001.972961 1023.200195,992.815979 1028.868774,983.911926 
	C1030.835693,980.822510 1032.567749,977.555908 1034.788452,974.662903 
	C1037.319092,971.365784 1039.917603,966.296570 1043.126953,965.748840 
	C1048.690796,964.799133 1054.853271,966.279480 1060.564575,967.603760 
	C1065.341797,968.711426 1065.611328,973.274109 1065.660400,977.355530 
	C1065.739380,983.914062 1065.584351,990.475586 1065.680542,997.033630 
	C1065.846558,1008.355713 1065.942017,1019.683899 1066.416382,1030.994873 
	C1066.887939,1042.236938 1067.789551,1053.460938 1068.585693,1066.004028 
	C1053.726929,1058.798584 1046.261841,1046.548584 1038.689697,1033.403076 
z"/>
<path fill="#233565" opacity="1.000000" stroke="none" 
	d="
M1403.763428,1247.725586 
	C1401.829956,1250.443726 1400.341797,1252.619995 1398.929688,1254.684937 
	C1388.883423,1252.131592 1387.130371,1249.983887 1386.261230,1240.911865 
	C1385.664062,1234.677856 1383.930786,1228.505615 1383.803467,1222.283447 
	C1383.538208,1209.307617 1388.849243,1188.948486 1395.265137,1175.215454 
	C1408.218262,1173.082275 1432.395142,1186.449585 1441.645630,1200.830811 
	C1429.159302,1216.290649 1416.683960,1231.737061 1403.763428,1247.725586 
z"/>
<path fill="#87D2B7" opacity="1.000000" stroke="none" 
	d="
M888.181274,1046.561157 
	C887.812012,1042.714722 887.696228,1038.782349 888.578186,1035.088013 
	C892.261597,1019.658875 896.520142,1004.363403 900.009583,988.892944 
	C901.959961,980.245972 907.054199,975.696472 915.395081,974.314697 
	C921.516113,973.300720 927.685059,972.576416 934.693420,971.603577 
	C933.735168,996.444824 926.842896,1017.859680 909.422119,1035.097900 
	C903.676147,1040.783691 896.952637,1044.929932 888.181274,1046.561157 
z"/>
<path fill="#87D2B7" opacity="1.000000" stroke="none" 
	d="
M1089.658691,1026.328491 
	C1078.209351,1009.826477 1072.954834,992.105164 1072.056763,971.364319 
	C1080.549438,972.848511 1088.393799,973.540955 1095.760986,975.793640 
	C1099.430420,976.915710 1104.175537,980.353394 1105.098511,983.671509 
	C1110.831543,1004.280640 1115.618286,1025.153076 1120.997681,1047.073853 
	C1106.584595,1044.620972 1097.891479,1036.433960 1089.658691,1026.328491 
z"/>
<path fill="#87D2B7" opacity="1.000000" stroke="none" 
	d="
M884.490356,1004.540894 
	C875.648132,1016.789917 865.067749,1025.196289 850.340271,1027.813354 
	C851.133972,1003.827209 868.602417,984.926575 893.388916,981.444275 
	C893.716919,990.278687 889.347900,997.125916 884.490356,1004.540894 
z"/>
<path fill="#87D2B7" opacity="1.000000" stroke="none" 
	d="
M1117.486572,996.538452 
	C1115.708252,991.563904 1114.257202,987.242493 1112.208740,981.141968 
	C1124.785034,982.923950 1134.968018,985.687439 1142.270752,994.636597 
	C1149.876953,1003.957764 1153.610962,1015.281860 1158.482056,1026.319946 
	C1144.626099,1027.889526 1130.519653,1017.526978 1117.486572,996.538452 
z"/>
<path fill="#233565" opacity="1.000000" stroke="none" 
	d="
M1646.345337,1915.597412 
	C1646.934570,1915.947632 1647.359131,1916.498047 1647.783691,1917.048584 
	C1647.289551,1916.966187 1646.795288,1916.883911 1646.074951,1916.499023 
	C1645.848755,1916.196411 1646.180664,1915.797729 1646.345337,1915.597412 
z"/>
<path fill="#233565" opacity="1.000000" stroke="none" 
	d="
M1331.984375,1851.966675 
	C1331.911133,1851.891968 1332.532227,1851.274292 1332.532227,1851.274292 
	C1332.532227,1851.274292 1332.626953,1851.984009 1332.418945,1852.083862 
	C1332.210815,1852.183716 1332.057617,1852.041382 1331.984375,1851.966675 
z"/>
<path fill="#233565" opacity="1.000000" stroke="none" 
	d="
M1206.940063,1857.131592 
	C1206.913330,1857.068481 1206.966797,1857.194824 1206.940063,1857.131592 
z"/>
<path fill="#010102" opacity="1.000000" stroke="none" 
	d="
M179.588776,1455.893311 
	C179.299026,1438.187744 172.000336,1423.722778 163.951187,1409.497681 
	C163.361572,1408.455688 163.276352,1407.128296 162.693222,1404.949219 
	C168.724503,1405.434204 171.549347,1409.030029 173.854874,1412.854126 
	C176.761292,1417.675171 179.421692,1422.682617 181.741394,1427.811768 
	C189.370117,1444.680176 196.796921,1461.639648 204.243683,1478.434326 
	C193.387283,1477.626099 184.484451,1469.811768 179.588776,1455.893311 
z"/>
<path fill="#010102" opacity="1.000000" stroke="none" 
	d="
M154.079834,1443.894653 
	C147.085526,1436.134155 139.815231,1428.598877 133.219620,1420.513184 
	C130.171890,1416.776978 132.465012,1411.353149 137.105652,1408.943481 
	C140.995911,1406.923706 144.025299,1408.433960 145.707123,1413.886841 
	C148.624420,1423.345459 151.206512,1432.907349 153.976395,1443.191895 
	C154.023605,1443.957764 154.079849,1443.894653 154.079834,1443.894653 
z"/>
<path fill="#010102" opacity="1.000000" stroke="none" 
	d="
M153.988724,1443.980225 
	C154.289810,1444.421265 154.625778,1444.839966 154.961746,1445.258667 
	C154.693237,1445.003174 154.424728,1444.747559 154.118042,1444.193359 
	C154.079849,1443.894653 154.023605,1443.957764 153.988724,1443.980225 
z"/>
<path fill="#010102" opacity="1.000000" stroke="none" 
	d="
M1060.322266,1294.314453 
	C1058.268921,1296.652466 1056.600708,1298.965576 1054.480713,1299.505371 
	C1051.343994,1300.304077 1047.883789,1299.778809 1044.566406,1299.930786 
	C1029.662964,1300.613159 1014.762512,1301.362549 999.858154,1302.023315 
	C996.625488,1302.166626 993.381042,1302.044312 989.062378,1302.044312 
	C990.212280,1299.210693 990.652832,1297.326050 991.644836,1295.799683 
	C1008.701050,1269.556030 1027.397827,1244.596680 1050.319092,1223.118774 
	C1058.707031,1215.259155 1067.118164,1207.172974 1080.191650,1202.642944 
	C1079.585815,1207.536621 1079.442627,1211.301147 1078.621460,1214.911621 
	C1072.659424,1241.124023 1066.560791,1267.305176 1060.322266,1294.314453 
z"/>
<path fill="#000000" opacity="1.000000" stroke="none" 
	d="
M636.862183,1379.779541 
	C636.929810,1379.736450 636.794556,1379.822632 636.862183,1379.779541 
z"/>
</svg>